<?xml version="1.0" encoding="windows-1252"?>
<!-- Generator: Adobe Illustrator 16.0.0, SVG Export Plug-In . SVG Version: 6.00 Build 0)  -->
<!DOCTYPE svg PUBLIC "-//W3C//DTD SVG 1.1//EN" "http://www.w3.org/Graphics/SVG/1.1/DTD/svg11.dtd">
<svg version="1.1" id="Capa_1" xmlns="http://www.w3.org/2000/svg" xmlns:xlink="http://www.w3.org/1999/xlink" x="0px" y="0px" width="35.752px" height="35.752px" viewBox="0 0 35.752 35.752" style="enable-background:new 0 0 35.752 35.752;" xml:space="preserve">
<g>
	<path d="M25.352,22.48l1.967,7.34c0.036,0.133-0.043,0.271-0.177,0.306c-0.022,0.006-0.043,0.009-0.065,0.009   c-0.11,0-0.211-0.072-0.242-0.186l-2.096-7.821l-6.613-3.817v7.635l5.727,5.729c0.098,0.099,0.098,0.257,0,0.354   c-0.051,0.05-0.113,0.074-0.179,0.074c-0.062,0-0.128-0.024-0.177-0.074l-5.372-5.373v3.937c0,0.138-0.112,0.25-0.25,0.25   s-0.25-0.112-0.25-0.25v-3.937l-5.372,5.373c-0.098,0.099-0.256,0.099-0.354,0c-0.098-0.098-0.098-0.256,0-0.354l5.726-5.729   v-7.635l-6.613,3.817l-2.096,7.821c-0.03,0.111-0.131,0.186-0.242,0.186c-0.021,0-0.043-0.003-0.065-0.009   c-0.133-0.035-0.212-0.173-0.177-0.306l1.967-7.34L6.99,24.449c-0.04,0.021-0.083,0.033-0.125,0.033   c-0.086,0-0.17-0.045-0.216-0.125c-0.069-0.119-0.028-0.272,0.091-0.342l3.408-1.97L2.809,20.08   c-0.134-0.035-0.213-0.173-0.177-0.307c0.036-0.135,0.175-0.211,0.306-0.178l7.823,2.096l6.615-3.815l-6.613-3.816l-7.822,2.094   c-0.021,0.007-0.043,0.01-0.064,0.01c-0.11,0-0.211-0.073-0.242-0.186c-0.036-0.134,0.043-0.271,0.177-0.307l7.339-1.966   l-3.407-1.968c-0.12-0.069-0.161-0.223-0.091-0.342c0.068-0.119,0.222-0.158,0.341-0.093l3.407,1.968L8.434,5.932   C8.398,5.798,8.477,5.661,8.611,5.625C8.748,5.59,8.882,5.668,8.918,5.802l2.096,7.82l6.614,3.817V9.806l-5.726-5.728   c-0.098-0.099-0.098-0.257,0-0.354c0.098-0.098,0.256-0.098,0.354,0l5.372,5.373V5.161c0-0.139,0.112-0.25,0.25-0.25   s0.25,0.111,0.25,0.25v3.936L23.5,3.724c0.1-0.098,0.256-0.098,0.354,0c0.098,0.098,0.098,0.256,0,0.354l-5.727,5.728v7.635   l6.614-3.817l2.096-7.82c0.036-0.134,0.176-0.211,0.309-0.177c0.133,0.035,0.212,0.173,0.177,0.307l-1.967,7.338l3.407-1.968   c0.117-0.067,0.271-0.028,0.341,0.093c0.067,0.119,0.026,0.271-0.091,0.342l-3.407,1.968l7.339,1.966   c0.134,0.035,0.213,0.173,0.177,0.307c-0.03,0.111-0.131,0.186-0.242,0.186c-0.021,0-0.043-0.003-0.062-0.01l-7.822-2.094   l-6.619,3.814l6.612,3.815l7.823-2.094c0.133-0.035,0.27,0.043,0.306,0.176c0.036,0.135-0.043,0.271-0.177,0.308l-7.339,1.966   l3.406,1.969c0.12,0.068,0.161,0.223,0.093,0.342c-0.046,0.08-0.132,0.125-0.218,0.125c-0.042,0-0.085-0.01-0.125-0.032   L25.352,22.48z M16.876,7.288v-2.24l-0.937-0.541V2.272l1.937-1.117l1.938,1.117v2.234l-0.938,0.541v2.24l4.092-4.092   c0.195-0.195,0.195-0.512,0-0.707c-0.193-0.195-0.512-0.195-0.707,0l-1.446,1.447V1.694L17.876,0l-2.937,1.694v2.242l-1.448-1.447   c-0.195-0.195-0.512-0.195-0.707,0c-0.195,0.195-0.195,0.512,0,0.707L16.876,7.288z M18.875,10.118l5.777-5.779l1.557,0.898   l-2.115,7.894l-5.219,3.015V10.118z M19.875,14.412l3.361-1.938l1.809-6.752l-0.229-0.133l-4.941,4.943V14.412z M28.484,10.597   V9.515l1.937-1.117l1.938,1.119v2.234l-1.938,1.118l-0.937-0.541l-1.94,1.121l5.59,1.497c0.043,0.012,0.089,0.018,0.132,0.018   c0.221,0,0.423-0.146,0.48-0.37c0.071-0.268-0.087-0.541-0.354-0.612l-1.979-0.53l1.944-1.121v-3.39l-2.938-1.697l-1.94,1.121   l0.528-1.979c0.071-0.268-0.087-0.54-0.354-0.612c-0.265-0.063-0.541,0.088-0.612,0.354l-1.499,5.592L28.484,10.597z    M25.094,14.862l7.893,2.114v1.799l-7.895,2.113l-5.217-3.013L25.094,14.862z M25.236,15.937l-3.361,1.939l3.36,1.938l6.751-1.809   v-0.264L25.236,15.937z M33.134,20.807l-5.589,1.496l1.938,1.121l0.937-0.541l1.938,1.118l-0.002,2.235l-1.938,1.117l-1.937-1.117   v-1.082l-1.941-1.12l1.498,5.592c0.062,0.226,0.262,0.371,0.482,0.371c0.043,0,0.086-0.006,0.13-0.019   c0.267-0.07,0.425-0.346,0.354-0.61l-0.528-1.979l1.942,1.121l2.938-1.693l0.002-3.394l-1.944-1.121l1.98-0.528   c0.267-0.072,0.425-0.348,0.354-0.613C33.675,20.895,33.402,20.736,33.134,20.807z M24.093,22.621l2.116,7.895l-1.556,0.897   l-5.778-5.779v-6.024L24.093,22.621z M25.045,30.029l-1.81-6.752l-3.36-1.938v3.88l4.942,4.943L25.045,30.029z M18.875,28.464v2.24   l0.938,0.541v2.233l-1.938,1.119l-1.937-1.117v-2.234l0.937-0.542v-2.243l-4.092,4.096c-0.195,0.194-0.195,0.512,0,0.707   c0.195,0.194,0.512,0.194,0.707,0l1.448-1.449v2.244l2.937,1.693l2.938-1.693v-2.242l1.446,1.447c0.195,0.194,0.514,0.194,0.707,0   c0.195-0.195,0.195-0.513,0-0.707L18.875,28.464z M16.876,25.634l-5.777,5.779l-1.557-0.897l2.116-7.895l5.218-3.016V25.634z    M15.876,21.34l-3.36,1.938l-1.81,6.752l0.229,0.134l4.941-4.943V21.34z M7.268,25.154v1.082l-1.937,1.117l-1.936-1.117   l-0.002-2.235l1.938-1.118l0.937,0.541l1.938-1.121l-5.589-1.496c-0.266-0.066-0.541,0.088-0.612,0.354   c-0.071,0.268,0.087,0.541,0.354,0.613l1.98,0.528l-1.944,1.121l0.002,3.394l2.936,1.693l1.944-1.121l-0.53,1.979   c-0.071,0.267,0.087,0.54,0.354,0.61c0.043,0.013,0.087,0.019,0.13,0.019c0.221,0,0.423-0.146,0.482-0.371l1.498-5.592   L7.268,25.154z M10.658,20.891l-7.893-2.115v-1.798l7.892-2.113l5.219,3.013L10.658,20.891z M10.516,19.814l3.36-1.938   l-3.361-1.939l-6.75,1.809v0.264L10.516,19.814z M2.486,14.964c0.043,0,0.086-0.006,0.13-0.018l5.59-1.497l-1.94-1.121   l-0.937,0.541l-1.937-1.118V9.517l1.937-1.119l1.937,1.117v1.082l1.94,1.122L7.707,6.127C7.636,5.86,7.361,5.709,7.095,5.773   C6.828,5.845,6.67,6.12,6.741,6.386l0.53,1.977l-1.942-1.12L2.392,8.939v3.391l1.944,1.121L2.357,13.98   c-0.267,0.072-0.425,0.347-0.354,0.613C2.064,14.815,2.266,14.964,2.486,14.964z M11.657,13.131L9.542,5.237l1.557-0.898   l5.777,5.779v6.025L11.657,13.131z M10.706,5.722l1.809,6.752l3.361,1.938v-3.88l-4.941-4.943L10.706,5.722z"/>
</g>
<g>
</g>
<g>
</g>
<g>
</g>
<g>
</g>
<g>
</g>
<g>
</g>
<g>
</g>
<g>
</g>
<g>
</g>
<g>
</g>
<g>
</g>
<g>
</g>
<g>
</g>
<g>
</g>
<g>
</g>
</svg>