<?xml version="1.0" encoding="windows-1252"?>
<!-- Generator: Adobe Illustrator 16.0.0, SVG Export Plug-In . SVG Version: 6.00 Build 0)  -->
<!DOCTYPE svg PUBLIC "-//W3C//DTD SVG 1.1//EN" "http://www.w3.org/Graphics/SVG/1.1/DTD/svg11.dtd">
<svg version="1.1" id="Capa_1" xmlns="http://www.w3.org/2000/svg" xmlns:xlink="http://www.w3.org/1999/xlink" x="0px" y="0px" width="37.708px" height="37.707px" viewBox="0 0 37.708 37.707" style="enable-background:new 0 0 37.708 37.707;" xml:space="preserve">
<g>
	<path d="M35.247,25.674c0-0.18-0.096-0.344-0.25-0.434l-2.042-1.181c-0.153-0.089-0.345-0.089-0.499,0l-1.792,1.035l-4.362-2.519   l5.729-1.533c0.267-0.072,0.425-0.348,0.354-0.612c-0.069-0.267-0.346-0.421-0.61-0.354l-6.694,1.795l-1.903-1.101l4.354-1.918   l-4.353-1.919l1.906-1.102l6.689,1.793c0.043,0.012,0.088,0.018,0.131,0.018c0.221,0,0.422-0.146,0.482-0.37   c0.069-0.269-0.089-0.541-0.354-0.612l-5.724-1.533l4.354-2.516l1.792,1.034c0.077,0.044,0.164,0.065,0.25,0.065   s0.172-0.021,0.25-0.065l2.043-1.179c0.155-0.088,0.25-0.254,0.25-0.432l-0.002-1.254l0.001-1.105c0-0.18-0.096-0.344-0.25-0.434   l-2.042-1.178c-0.155-0.088-0.345-0.088-0.5,0l-2.04,1.177c-0.155,0.089-0.251,0.255-0.251,0.435v2.07l-4.356,2.516l1.534-5.727   c0.071-0.269-0.087-0.541-0.354-0.613c-0.264-0.063-0.538,0.088-0.61,0.354l-1.793,6.693l-1.905,1.101l0.514-4.729l-3.835,2.811   v-2.199l4.898-4.897c0.195-0.195,0.195-0.513,0-0.707c-0.195-0.195-0.512-0.195-0.707,0l-4.191,4.19V5.503l1.791-1.03   c0.156-0.091,0.25-0.255,0.25-0.435V1.682c0-0.179-0.094-0.343-0.248-0.433l-2.042-1.181c-0.155-0.09-0.346-0.09-0.501,0   l-2.042,1.181c-0.154,0.088-0.25,0.254-0.25,0.433v2.356c0,0.18,0.096,0.344,0.25,0.435l1.792,1.032v5.033l-4.191-4.19   c-0.195-0.195-0.512-0.195-0.707,0c-0.195,0.194-0.195,0.512,0,0.707l4.898,4.897v2.199l-3.836-2.809l0.514,4.729l-1.906-1.101   l-1.793-6.693c-0.072-0.267-0.344-0.418-0.612-0.354c-0.267,0.072-0.425,0.347-0.354,0.613l1.535,5.728l-4.358-2.517l0.001-0.967   L7.546,9.675c0-0.178-0.096-0.344-0.25-0.432L5.255,8.064c-0.155-0.088-0.345-0.088-0.499,0L2.714,9.244   c-0.155,0.088-0.25,0.254-0.25,0.433l-0.007,2.358c0,0.178,0.095,0.344,0.25,0.432l2.043,1.182c0.077,0.044,0.164,0.066,0.25,0.066   s0.172-0.022,0.25-0.066l1.791-1.035l4.357,2.516l-5.724,1.533c-0.267,0.072-0.425,0.346-0.354,0.613   c0.06,0.223,0.262,0.37,0.482,0.37c0.043,0,0.086-0.006,0.13-0.017l6.69-1.793l1.908,1.102l-4.352,1.917l4.352,1.919l-1.902,1.1   L5.935,20.08c-0.264-0.065-0.541,0.088-0.612,0.354c-0.071,0.266,0.087,0.54,0.354,0.611l5.728,1.535l-4.363,2.519l-1.793-1.034   c-0.155-0.088-0.345-0.089-0.499,0.001L2.71,25.242c-0.155,0.09-0.25,0.256-0.25,0.435l-0.001,1.105l0.001,0.146l-0.001,1.104   c0,0.179,0.095,0.345,0.25,0.433l2.042,1.182c0.077,0.044,0.164,0.064,0.25,0.064s0.172-0.021,0.25-0.064l2.041-1.182   c0.155-0.088,0.25-0.254,0.25-0.433l-0.001-1.253l0.001-0.814l4.359-2.518l-1.532,5.725c-0.071,0.268,0.087,0.539,0.354,0.611   c0.043,0.012,0.087,0.019,0.13,0.019c0.221,0,0.423-0.147,0.482-0.371l1.791-6.688l1.906-1.101l-0.514,4.729l3.837-2.811v2.193   l-4.898,4.898c-0.195,0.195-0.195,0.512,0,0.707s0.512,0.195,0.707,0l4.191-4.191v5.037l-1.792,1.031   c-0.155,0.09-0.25,0.256-0.25,0.434v2.357c0,0.18,0.095,0.344,0.25,0.434l2.042,1.181c0.078,0.045,0.164,0.065,0.25,0.065   s0.173-0.021,0.25-0.065l2.042-1.181c0.154-0.09,0.25-0.254,0.25-0.434V33.67c0-0.178-0.096-0.344-0.25-0.434l-1.793-1.031v-5.037   l4.191,4.193c0.099,0.098,0.228,0.146,0.354,0.146c0.129,0,0.256-0.049,0.354-0.146c0.193-0.195,0.193-0.512,0-0.707l-4.899-4.9   v-2.196l3.834,2.81l-0.514-4.729l1.907,1.102l1.791,6.688c0.06,0.225,0.263,0.371,0.481,0.371c0.043,0,0.086-0.006,0.131-0.018   c0.267-0.07,0.425-0.346,0.354-0.611l-1.531-5.725l4.357,2.518v2.067c0,0.181,0.096,0.345,0.25,0.435l2.042,1.18   c0.077,0.044,0.164,0.066,0.25,0.066s0.172-0.022,0.25-0.066l2.042-1.18c0.154-0.09,0.25-0.254,0.25-0.435l0.001-1.253   L35.247,25.674z M31.162,10.785V9.969l1.542-0.889l1.062,0.611l0.479,0.275v0.555l0.001,1.229l-1.543,0.889l-1.042-0.602   l-0.5-0.287v-0.578L31.162,10.785z M3.458,10.521V9.965L3.937,9.69L4.999,9.08l1.542,0.889v1.203v0.576l-0.5,0.289L5,12.639   l-1.542-0.891V10.521z M6.541,27.744L5,28.635l-1.071-0.619l-0.471-0.271v-0.553v-0.268l-0.001-0.146v-0.813l1.541-0.889l1.041,0.6   l0.5,0.289v0.576L6.541,27.744z M21.95,24.22l-2.597-1.902l-0.5-0.364l-0.5,0.364l-2.599,1.903l0.348-3.201l0.067-0.615   l-0.567-0.25l-2.945-1.3l2.947-1.299l0.567-0.25l-0.067-0.615l-0.348-3.201l2.597,1.902l0.5,0.366l0.5-0.366l2.597-1.902   l-0.348,3.201l-0.067,0.614l0.567,0.25l2.945,1.3l-2.945,1.299l-0.567,0.25l0.067,0.615L21.95,24.22z M17.311,1.967l1.062-0.613   l0.479-0.275l0.479,0.276l1.062,0.612v1.781L19.352,4.35l-0.5,0.288l-0.5-0.288L17.31,3.749L17.311,1.967L17.311,1.967z    M20.393,35.74l-1.062,0.613l-0.479,0.275l-0.478-0.274l-1.062-0.614v-1.779l1.042-0.602l0.5-0.288l0.5,0.288l1.042,0.602v1.779   H20.393z M31.165,26.778v-0.237v-0.576l0.5-0.289l1.042-0.604l1.542,0.893v1.227v0.553l-0.471,0.271l-1.07,0.619l-1.542-0.891   L31.165,26.778z"/>
</g>
<g>
</g>
<g>
</g>
<g>
</g>
<g>
</g>
<g>
</g>
<g>
</g>
<g>
</g>
<g>
</g>
<g>
</g>
<g>
</g>
<g>
</g>
<g>
</g>
<g>
</g>
<g>
</g>
<g>
</g>
</svg>